# xmcd
#
# Track frame offsets: 
#        183
#        26600
#        39393
#        54348
#        67695
#        79233
#        92165
#        108108
#        119965
#        133700
#        147460
#        159628
#        173403
#        186548
#        201095
#        214715
#        228788
#        240375
#
# Disc length: 3458 seconds
#
# Revision: 0
# Processed by: cddbd v1.5PL3 Copyright (c) Steve Scherf et al.
# Submitted via: ExactAudioCopy v0.95a3
#
DISCID=f40d8012
DTITLE=Various Artist - The Blues - Vocalists
DYEAR=1900
DGENRE=Blues
TTITLE0=Big Joe Turner - How Long Blues
TTITLE1=B.B. King - Please Love Me
TTITLE2=Lightnin' Hopkins - Mojo Hand
TTITLE3=Big Bill Broonzy - See See Rider
TTITLE4=John Lee Hooker - Boogie Chillen
TTITLE5=Muddy Waters - Hoochie Coochie
TTITLE6=Howlin' Wolf - I Ain't Superstitious
TTITLE7=Jimmy Reed - Bright Lights, Big City
TTITLE8=T-Bone Walker - Call It Stormy Monday
TTITLE9=Little Walter - Blues With A Feeling
TTITLE10=Elmore James - Blues Before Sunrise
TTITLE11=Muddy Waters - I'm Ready
TTITLE12=Memphis Slim - You Got To Help Me Some
TTITLE13=Roosevelt Sykes - Mislead Mother
TTITLE14=Lonnie Johnson - Tomorrow Night
TTITLE15=Sonny Boy Williamson - Help Me
TTITLE16=J.B. Lenoir - Natural Man
TTITLE17=Buddy Guy - First Time I Met The Blues
EXTD=
EXTT0=
EXTT1=
EXTT2=
EXTT3=
EXTT4=
EXTT5=
EXTT6=
EXTT7=
EXTT8=
EXTT9=
EXTT10=
EXTT11=
EXTT12=
EXTT13=
EXTT14=
EXTT15=
EXTT16=
EXTT17=
PLAYORDER=
